<svg width="28" height="29" viewBox="0 0 28 29" fill="none" xmlns="http://www.w3.org/2000/svg">
<path d="M11.6668 2.83334H16.3335C16.9523 2.83334 17.5458 3.07917 17.9834 3.51675C18.421 3.95434 18.6668 4.54783 18.6668 5.16667V7.5H23.3335C23.9523 7.5 24.5458 7.74583 24.9834 8.18342C25.421 8.621 25.6668 9.2145 25.6668 9.83334V22.6667C25.6668 23.2855 25.421 23.879 24.9834 24.3166C24.5458 24.7542 23.9523 25 23.3335 25H4.66683C4.04799 25 3.4545 24.7542 3.01691 24.3166C2.57933 23.879 2.3335 23.2855 2.3335 22.6667V9.83334C2.3335 8.53834 3.37183 7.5 4.66683 7.5H9.3335V5.16667C9.3335 3.87167 10.3718 2.83334 11.6668 2.83334ZM16.3335 7.5V5.16667H11.6668V7.5H16.3335Z" fill="url(#paint0_linear_544_1690)"/>
<defs>
<linearGradient id="paint0_linear_544_1690" x1="14.0002" y1="2.83334" x2="14.0002" y2="25" gradientUnits="userSpaceOnUse">
<stop stop-color="#00ADC7"/>
<stop offset="1" stop-color="#55D3E6"/>
</linearGradient>
</defs>
</svg>
