<svg width="48" height="48" viewBox="0 0 48 48" fill="none" xmlns="http://www.w3.org/2000/svg">
<path opacity="0.3" d="M24 12C16.42 12 9.65999 16.26 6.35999 23C9.65999 29.74 16.42 34 24 34C31.58 34 38.34 29.74 41.64 23C38.34 16.26 31.58 12 24 12ZM24 32C19.04 32 15 27.96 15 23C15 18.04 19.04 14 24 14C28.96 14 33 18.04 33 23C33 27.96 28.96 32 24 32Z" fill="white"/>
<path d="M24 8C14 8 5.46 14.22 2 23C5.46 31.78 14 38 24 38C34 38 42.54 31.78 46 23C42.54 14.22 34 8 24 8ZM24 34C16.42 34 9.66 29.74 6.36 23C9.66 16.26 16.42 12 24 12C31.58 12 38.34 16.26 41.64 23C38.34 29.74 31.58 34 24 34ZM24 14C19.04 14 15 18.04 15 23C15 27.96 19.04 32 24 32C28.96 32 33 27.96 33 23C33 18.04 28.96 14 24 14ZM24 28C21.24 28 19 25.76 19 23C19 20.24 21.24 18 24 18C26.76 18 29 20.24 29 23C29 25.76 26.76 28 24 28Z" fill="#00ADC7"/>
</svg>
