<svg width="48" height="48" viewBox="0 0 48 48" fill="none" xmlns="http://www.w3.org/2000/svg">
<path d="M14.6666 9.33337H10.6666C10.313 9.33337 9.97388 9.47385 9.72384 9.7239C9.47379 9.97395 9.33331 10.3131 9.33331 10.6667V37.3334C9.33331 37.687 9.47379 38.0261 9.72384 38.2762C9.97388 38.5262 10.313 38.6667 10.6666 38.6667H14.6666V9.33337Z" fill="#7EC49F"/>
<path d="M17.3333 38.6667H30.6666V9.33337H17.3333V38.6667ZM24 33.3334C23.6464 33.3334 23.3072 33.1929 23.0572 32.9429C22.8071 32.6928 22.6666 32.3537 22.6666 32C22.6666 31.6464 22.8071 31.3073 23.0572 31.0572C23.3072 30.8072 23.6464 30.6667 24 30.6667C24.3536 30.6667 24.6927 30.8072 24.9428 31.0572C25.1928 31.3073 25.3333 31.6464 25.3333 32C25.3333 32.3537 25.1928 32.6928 24.9428 32.9429C24.6927 33.1929 24.3536 33.3334 24 33.3334ZM24 14.6667C24.3536 14.6667 24.6927 14.8072 24.9428 15.0572C25.1928 15.3073 25.3333 15.6464 25.3333 16C25.3333 16.3537 25.1928 16.6928 24.9428 16.9429C24.6927 17.1929 24.3536 17.3334 24 17.3334C23.6464 17.3334 23.3072 17.1929 23.0572 16.9429C22.8071 16.6928 22.6666 16.3537 22.6666 16C22.6666 15.6464 22.8071 15.3073 23.0572 15.0572C23.3072 14.8072 23.6464 14.6667 24 14.6667ZM24 22.6667C24.3536 22.6667 24.6927 22.8072 24.9428 23.0572C25.1928 23.3073 25.3333 23.6464 25.3333 24C25.3333 24.3537 25.1928 24.6928 24.9428 24.9429C24.6927 25.1929 24.3536 25.3334 24 25.3334C23.6464 25.3334 23.3072 25.1929 23.0572 24.9429C22.8071 24.6928 22.6666 24.3537 22.6666 24C22.6666 23.6464 22.8071 23.3073 23.0572 23.0572C23.3072 22.8072 23.6464 22.6667 24 22.6667Z" fill="#FB9B55"/>
<path d="M37.3333 9.33337H33.3333V38.6667H37.3333C37.6869 38.6667 38.026 38.5262 38.2761 38.2762C38.5261 38.0261 38.6666 37.687 38.6666 37.3334V10.6667C38.6666 10.3131 38.5261 9.97395 38.2761 9.7239C38.026 9.47385 37.6869 9.33337 37.3333 9.33337Z" fill="#00ADC7"/>
</svg>
