<svg width="354" height="350" viewBox="0 0 354 350" fill="none" xmlns="http://www.w3.org/2000/svg">
<g clip-path="url(#clip0_127_2639)">
<path d="M137.34 207.767C80.9094 194.346 45.9066 137.468 59.3132 80.9756C72.7197 24.4835 129.536 -10.5572 185.968 2.86386C202.36 6.78036 217.576 14.5742 230.339 25.5919C243.102 36.6095 253.041 50.5299 259.322 66.1859L258.191 66.6405C251.983 51.1655 242.16 37.406 229.544 26.5157C216.929 15.6254 201.889 7.92165 185.686 4.05041C129.909 -9.21509 73.7497 25.4201 60.4985 81.2575C47.2473 137.095 81.845 193.315 137.622 206.58C153.148 210.327 169.33 210.418 184.897 206.848C200.464 203.278 214.992 196.143 227.34 186.004L228.108 186.949C215.616 197.207 200.918 204.426 185.168 208.038C169.419 211.65 153.048 211.557 137.34 207.767Z" fill="#E6E6E6"/>
<path d="M327.335 148.028H243.023C238.452 148.028 234.733 142.855 234.733 136.498V49.7822C234.733 43.4251 238.452 38.2527 243.023 38.2527H345.71C350.281 38.2527 354 43.4251 354 49.7822V110.943C354 131.392 342.038 148.028 327.335 148.028Z" fill="#F2F2F2"/>
<path d="M174.623 336.508H181.346L187.881 285.882H172.652L174.623 336.508Z" fill="#A0616A"/>
<path d="M172.429 331.898L183.171 331.256V335.863L193.383 342.924C193.887 343.273 194.267 343.774 194.467 344.354C194.667 344.934 194.677 345.563 194.494 346.149C194.312 346.735 193.947 347.247 193.453 347.61C192.959 347.974 192.362 348.17 191.75 348.17H178.961L176.757 343.613L175.896 348.17H171.074L172.429 331.898Z" fill="#2F2E41"/>
<path d="M74.7856 320.452L80.9198 323.208L107.586 279.697L93.693 273.456L74.7856 320.452Z" fill="#A0616A"/>
<path d="M74.6693 315.347L84.7319 319.164L82.8476 323.367L89.2771 333.995C89.5948 334.52 89.7365 335.132 89.6816 335.744C89.6267 336.355 89.3781 336.932 88.972 337.392C88.566 337.852 88.0238 338.17 87.4246 338.299C86.8254 338.428 86.2005 338.363 85.6413 338.111L73.9739 332.87L73.8267 327.809L71.1776 331.614L66.7786 329.637L74.6693 315.347Z" fill="#2F2E41"/>
<path d="M123.162 175.422L154.262 171.2C154.262 171.2 194.245 263.769 192.571 311.106L167.199 314.239C167.199 314.239 167.392 294.828 168.799 293.343C170.207 291.858 171.943 293.747 170.207 289.5C168.471 285.253 167.077 284.18 169.163 282.109C171.249 280.038 146.574 243.821 146.574 243.821C146.574 243.821 107.749 292.707 105.666 294.098C103.582 295.488 101.215 295.795 102.572 299.292C103.93 302.788 101.498 309.489 101.498 309.489C101.498 309.489 86.197 307.166 79.9463 291.87C79.9463 291.87 105.222 245.773 107.517 245.008C109.811 244.243 110.853 248.067 109.811 244.243C108.769 240.419 106.686 241.81 108.769 240.419C110.173 239.522 111.691 238.82 113.284 238.333L121.368 216.936C115.136 202.624 115.534 188.773 123.162 175.422Z" fill="#2F2E41"/>
<path d="M122.864 150.927L124.005 161.526L123.333 175.425L154.086 171.768L156.976 150.927L153.294 150.963L122.864 150.927Z" fill="#FFB6B6"/>
<path d="M149.022 116.691L137.448 107.544L131.373 107.19L122.358 112.971L120.15 124.245L114.93 136.94L122.587 171.2C122.587 171.2 123.305 173.659 121.423 173.954C119.541 174.249 119.767 177.873 119.767 177.873C119.767 177.873 120.15 181.014 118.322 181.291C116.495 181.567 111.622 181.567 115.886 187.055C120.15 192.544 154.685 171.743 154.685 171.743L158.775 146.056C158.775 146.056 168.274 133.283 158.044 125.967L149.022 116.691Z" fill="#00ADC7"/>
<path d="M98.4968 194.477C97.9868 193.84 97.6226 193.099 97.4297 192.305C97.2369 191.512 97.2201 190.686 97.3806 189.886C97.5411 189.085 97.8749 188.33 98.3586 187.673C98.8423 187.015 99.464 186.472 100.18 186.082L114.738 137.172L123.841 141.76L107.987 188.639C108.563 189.887 108.662 191.303 108.265 192.619C107.867 193.934 107.002 195.058 105.832 195.778C104.662 196.498 103.269 196.763 101.917 196.523C100.566 196.283 99.3484 195.555 98.4968 194.477H98.4968Z" fill="#A0616A"/>
<path d="M124.448 112.519C124.448 112.519 121.846 111.134 120.066 117.125C118.641 121.922 107.079 150.49 106.931 157.435C105.98 157.637 105.122 158.15 104.494 158.894C103.866 159.637 103.503 160.569 103.461 161.542L117.757 163.459C120.256 161.35 120.911 158.501 119.944 157.656L123.048 149.169L135.998 122.167L126.347 113.486L124.448 112.519Z" fill="#00ADC7"/>
<path d="M200.836 178.4C201.021 177.605 201.029 176.779 200.86 175.98C200.691 175.182 200.35 174.43 199.859 173.778C199.369 173.125 198.742 172.589 198.021 172.205C197.301 171.822 196.506 171.602 195.692 171.559L162.296 133.377L155.212 141.839L189.757 177.245C189.777 178.62 190.3 179.939 191.226 180.953C192.153 181.968 193.419 182.607 194.784 182.749C196.15 182.891 197.52 182.527 198.636 181.726C199.751 180.924 200.534 179.741 200.836 178.4Z" fill="#A0616A"/>
<path d="M142.033 115.737C142.033 115.737 143.781 113.362 147.974 117.993C151.331 121.701 174.097 142.454 177.23 148.653C178.175 148.423 179.17 148.514 180.058 148.913C180.945 149.311 181.675 149.994 182.132 150.853L170.071 158.771C166.907 157.951 165.086 155.666 165.592 154.485L159.127 148.177L135.787 129.436L140.739 117.431L142.033 115.737Z" fill="#00ADC7"/>
<path d="M147.958 108C149.298 106.073 137.718 101.518 135.476 102.384C130.877 104.17 125.444 107.988 121.216 108.53C121.297 106.851 121.148 105.169 120.771 103.53C120.315 105.195 119.864 106.866 119.407 108.537C115.417 107.969 108.771 101.274 110.404 85.8273C111.08 79.467 115.74 72.7042 130.969 70.1979C145.028 67.8928 148.457 78.3388 149.773 85.1626C152.77 100.658 151.29 107.762 147.958 108Z" fill="#2F2E41"/>
<path d="M134.87 102.406C141.828 102.406 147.468 96.76 147.468 89.7949C147.468 82.8298 141.828 77.1835 134.87 77.1835C127.912 77.1835 122.272 82.8298 122.272 89.7949C122.272 96.76 127.912 102.406 134.87 102.406Z" fill="#A0616A"/>
<path d="M151.826 85.2948L145.791 86.218C143.13 84.5493 142.116 82.0733 141.99 79.1628L142.597 86.7067L139.712 87.148C137.83 85.8906 136.989 84.529 137.495 83.0325L137.849 87.4331C130.161 90.206 122.709 92.251 116.417 90.7118C116.093 88.5885 116.19 86.422 116.702 84.3362C117.215 82.2504 118.132 80.2859 119.403 78.5551C120.673 76.8243 122.272 75.3609 124.108 74.2486C125.943 73.1362 127.979 72.3967 130.1 72.0723L133.206 71.5971C135.327 71.2726 137.491 71.3695 139.575 71.8822C141.659 72.395 143.621 73.3136 145.35 74.5855C147.079 75.8575 148.541 77.4579 149.652 79.2954C150.763 81.1329 151.502 83.1715 151.826 85.2948Z" fill="#2F2E41"/>
<path d="M41.0985 336.521C40.7482 336.538 40.4015 336.445 40.1052 336.258C39.809 336.07 39.5775 335.796 39.4422 335.472C39.307 335.148 39.2744 334.79 39.349 334.447C39.4235 334.104 39.6016 333.792 39.8591 333.554L39.9763 333.088C39.9608 333.05 39.9453 333.013 39.9297 332.976C39.5769 332.141 38.9856 331.43 38.2301 330.931C37.4747 330.432 36.5887 330.167 35.6836 330.171C34.7785 330.174 33.8946 330.445 33.1429 330.95C32.3911 331.455 31.8051 332.17 31.4585 333.007C30.0729 336.348 28.3089 339.694 27.8746 343.226C27.6833 344.788 27.764 346.37 28.1131 347.904C24.8589 340.798 23.1691 333.074 23.1582 325.256C23.1575 323.295 23.2664 321.335 23.4843 319.385C23.6644 317.787 23.9143 316.2 24.2339 314.625C25.9781 306.076 29.7229 298.064 35.1609 291.246C37.7929 289.809 39.9213 287.598 41.2596 284.912C41.7444 283.946 42.087 282.916 42.2769 281.852C41.98 281.891 41.1574 277.364 41.3813 277.087C40.9675 276.458 40.2269 276.146 39.7751 275.532C37.5277 272.482 34.4313 273.015 32.8149 277.16C29.3618 278.904 29.3284 281.798 31.4472 284.581C32.7952 286.351 32.9804 288.747 34.1631 290.642C34.0414 290.798 33.9149 290.949 33.7932 291.105C31.5688 293.968 29.6302 297.043 28.0049 300.285C28.4002 296.653 27.9284 292.979 26.6285 289.565C25.3111 286.384 22.8419 283.704 20.6674 280.954C18.0555 277.65 12.6996 279.092 12.2394 283.28C12.235 283.32 12.2306 283.361 12.2264 283.401C12.5493 283.584 12.8655 283.777 13.1748 283.982C13.5635 284.242 13.8646 284.614 14.0388 285.048C14.2129 285.482 14.252 285.959 14.151 286.415C14.0499 286.872 13.8133 287.288 13.4722 287.608C13.1312 287.928 12.7015 288.137 12.2396 288.208L12.1923 288.215C12.3074 289.381 12.5107 290.536 12.8007 291.67C10.0111 302.47 16.0336 306.403 24.633 306.58C24.8228 306.677 25.0078 306.775 25.1976 306.868C23.5648 311.5 22.5405 316.325 22.1507 321.222C21.93 324.111 21.943 327.013 22.1897 329.9L22.175 329.798C21.552 326.587 19.8414 323.691 17.3321 321.597C13.6052 318.532 8.33977 317.404 4.3191 314.94C3.8918 314.666 3.39496 314.519 2.88717 314.518C2.37938 314.516 1.88183 314.661 1.4532 314.933C1.02456 315.206 0.682717 315.595 0.467995 316.056C0.253273 316.517 0.174635 317.029 0.24133 317.533C0.246719 317.569 0.252188 317.605 0.257764 317.641C0.857129 317.885 1.44071 318.167 2.00511 318.484C2.32809 318.666 2.64425 318.86 2.95359 319.064C3.3422 319.324 3.64331 319.696 3.81747 320.13C3.99164 320.564 4.03076 321.041 3.92966 321.498C3.82857 321.954 3.59199 322.37 3.25093 322.69C2.90988 323.01 2.48026 323.219 2.01834 323.29L1.97099 323.298C1.93694 323.303 1.90772 323.307 1.87369 323.312C2.89779 325.76 4.33514 328.013 6.12279 329.973C7.86705 339.401 15.3587 340.295 23.3724 337.55H23.3772C24.2565 341.375 25.5305 345.098 27.1786 348.659H40.7582C40.807 348.508 40.8507 348.352 40.8946 348.201C39.6376 348.28 38.3757 348.205 37.137 347.977C38.1445 346.739 39.1521 345.492 40.1596 344.254C40.1821 344.231 40.2032 344.207 40.2229 344.181C40.7339 343.548 41.2499 342.919 41.7609 342.286L41.7612 342.285C41.7884 340.344 41.5659 338.406 41.099 336.522L41.0985 336.521Z" fill="#F2F2F2"/>
<path d="M0.725394 349.813L352.052 350C352.244 350 352.429 349.923 352.565 349.787C352.701 349.651 352.777 349.466 352.777 349.274C352.777 349.081 352.701 348.897 352.565 348.76C352.429 348.624 352.244 348.548 352.052 348.548L0.725394 348.36C0.533395 348.361 0.349446 348.438 0.213879 348.574C0.0783115 348.71 0.00219727 348.894 0.00219727 349.086C0.00219727 349.279 0.0783115 349.463 0.213879 349.599C0.349446 349.735 0.533395 349.812 0.725394 349.813Z" fill="#CACACA"/>
<path d="M314.95 180.805H201.079C198.881 180.802 196.774 179.927 195.22 178.371C193.666 176.816 192.791 174.706 192.789 172.506V66.5684C192.791 64.3682 193.666 62.2588 195.22 60.703C196.774 59.1472 198.881 58.2721 201.079 58.2695H314.95C317.148 58.2721 319.255 59.1472 320.809 60.703C322.363 62.2588 323.238 64.3682 323.24 66.5684V172.506C323.238 174.706 322.363 176.816 320.809 178.371C319.255 179.927 317.148 180.802 314.95 180.805Z" fill="#E6E6E6"/>
<path d="M290.984 175.207H206.672C204.474 175.205 202.367 174.329 200.813 172.774C199.259 171.218 198.384 169.109 198.382 166.908V72.1705C198.384 69.9703 199.259 67.861 200.813 66.3052C202.367 64.7494 204.474 63.8742 206.672 63.8717H309.359C311.556 63.8742 313.664 64.7494 315.218 66.3052C316.772 67.861 317.646 69.9703 317.649 72.1705V148.513C317.641 155.591 314.829 162.376 309.83 167.38C304.831 172.384 298.053 175.199 290.984 175.207Z" fill="white"/>
<path d="M246.175 95.482C246.176 97.8948 245.462 100.254 244.123 102.26C242.785 104.267 240.882 105.831 238.656 106.754C236.429 107.678 233.979 107.921 231.615 107.45C229.251 106.98 227.079 105.819 225.375 104.113C223.67 102.408 222.509 100.234 222.038 97.868C221.567 95.5017 221.808 93.0488 222.73 90.8194C223.652 88.5901 225.213 86.6844 227.217 85.3435C229.22 84.0025 231.576 83.2864 233.986 83.2858C235.587 83.2837 237.173 83.5977 238.652 84.2097C240.132 84.8218 241.476 85.72 242.608 86.8529C243.74 87.9857 244.638 89.331 245.25 90.8117C245.862 92.2924 246.177 93.8795 246.175 95.482Z" fill="#00ADC7"/>
<path d="M254.545 117.489H224.936C223.231 117.489 221.848 118.874 221.848 120.581V122.058C221.848 123.766 223.231 125.15 224.936 125.15H254.545C256.25 125.15 257.633 123.766 257.633 122.058V120.581C257.633 118.874 256.25 117.489 254.545 117.489Z" fill="#3F3D56"/>
<path d="M290.993 132.81H225.037C223.332 132.81 221.949 134.194 221.949 135.902V137.379C221.949 139.087 223.332 140.471 225.037 140.471H290.993C292.699 140.471 294.081 139.087 294.081 137.379V135.902C294.081 134.194 292.699 132.81 290.993 132.81Z" fill="#3F3D56"/>
<path d="M290.993 148.131H225.037C223.332 148.131 221.949 149.515 221.949 151.222V152.7C221.949 154.407 223.332 155.791 225.037 155.791H290.993C292.699 155.791 294.081 154.407 294.081 152.7V151.222C294.081 149.515 292.699 148.131 290.993 148.131Z" fill="#3F3D56"/>
<path d="M234.258 97.2499C236.613 97.2499 238.522 95.3388 238.522 92.9813C238.522 90.6238 236.613 88.7126 234.258 88.7126C231.903 88.7126 229.994 90.6238 229.994 92.9813C229.994 95.3388 231.903 97.2499 234.258 97.2499Z" fill="white"/>
<path d="M238.829 98.7749H229.692C229.127 98.7756 228.585 99.0006 228.185 99.4008C227.785 99.8009 227.561 100.343 227.56 100.909C227.69 102.737 227.975 104.551 228.413 106.33C230.245 107.276 232.288 107.74 234.348 107.679C236.409 107.618 238.42 107.035 240.194 105.983C240.585 104.315 240.842 102.618 240.961 100.909C240.961 100.343 240.736 99.8009 240.336 99.4008C239.937 99.0006 239.395 98.7756 238.829 98.7749Z" fill="white"/>
<path d="M303.911 84.4887C302.318 84.4887 300.761 84.0159 299.437 83.1302C298.113 82.2445 297.081 80.9856 296.472 79.5128C295.862 78.0399 295.703 76.4192 296.014 74.8556C296.324 73.2921 297.091 71.8558 298.217 70.7286C299.343 69.6013 300.778 68.8336 302.34 68.5226C303.902 68.2116 305.521 68.3712 306.992 68.9813C308.463 69.5914 309.721 70.6245 310.605 71.9501C311.49 73.2756 311.962 74.834 311.962 76.4282C311.962 78.566 311.114 80.6162 309.604 82.1278C308.094 83.6394 306.046 84.4887 303.911 84.4887Z" fill="#E6E6E6"/>
<path d="M306.719 78.115L305.034 76.4282L306.719 74.7415C306.868 74.5924 306.951 74.3902 306.951 74.1793C306.951 73.9684 306.868 73.7662 306.719 73.6171C306.57 73.4679 306.368 73.3842 306.157 73.3842C305.947 73.3842 305.745 73.4679 305.596 73.6171L303.911 75.3038L302.226 73.6171C302.077 73.4679 301.875 73.3842 301.664 73.3842C301.453 73.3842 301.251 73.4679 301.103 73.6171C300.954 73.7662 300.87 73.9684 300.87 74.1793C300.87 74.3902 300.954 74.5924 301.103 74.7415L302.787 76.4283L301.103 78.115C300.954 78.2641 300.87 78.4663 300.87 78.6772C300.87 78.8881 300.954 79.0903 301.103 79.2394C301.251 79.3886 301.453 79.4723 301.664 79.4723C301.875 79.4723 302.077 79.3886 302.226 79.2394L303.911 77.5527L305.596 79.2394C305.669 79.3132 305.757 79.3718 305.853 79.4118C305.95 79.4517 306.053 79.4723 306.157 79.4723C306.261 79.4723 306.365 79.4517 306.461 79.4118C306.557 79.3718 306.645 79.3132 306.719 79.2394C306.793 79.1656 306.851 79.0779 306.891 78.9814C306.931 78.885 306.951 78.7816 306.951 78.6771C306.951 78.5727 306.931 78.4693 306.891 78.3729C306.851 78.2764 306.793 78.1887 306.719 78.1149V78.115Z" fill="white"/>
</g>
<defs>
<clipPath id="clip0_127_2639">
<rect width="354" height="350" fill="white"/>
</clipPath>
</defs>
</svg>
