<svg width="48" height="48" viewBox="0 0 48 48" fill="none" xmlns="http://www.w3.org/2000/svg">
<path opacity="0.3" d="M8 36H40V12H8V36ZM18 28H26V26H20C18.9 26 18 25.1 18 24V18C18 16.9 18.9 16 20 16H22V14H26V16H30V20H22V22H28C29.1 22 30 22.9 30 24V30C30 31.1 29.1 32 28 32H26V34H22V32H18V28Z" fill="#00ADC7"/>
<path d="M40 8H8C5.78 8 4.02 9.78 4.02 12L4 36C4 38.22 5.78 40 8 40H40C42.22 40 44 38.22 44 36V12C44 9.78 42.22 8 40 8ZM40 36H8V12H40V36ZM22 34H26V32H28C29.1 32 30 31.1 30 30V24C30 22.9 29.1 22 28 22H22V20H30V16H26V14H22V16H20C18.9 16 18 16.9 18 18V24C18 25.1 18.9 26 20 26H26V28H18V32H22V34Z" fill="#00ADC7"/>
</svg>
