<svg width="17" height="25" viewBox="0 0 17 25" fill="none" xmlns="http://www.w3.org/2000/svg">
<path d="M8.66667 11.9167C7.89312 11.9167 7.15125 11.6094 6.60427 11.0624C6.05729 10.5154 5.75 9.77354 5.75 9C5.75 8.22645 6.05729 7.48458 6.60427 6.9376C7.15125 6.39062 7.89312 6.08333 8.66667 6.08333C9.44022 6.08333 10.1821 6.39062 10.7291 6.9376C11.276 7.48458 11.5833 8.22645 11.5833 9C11.5833 9.38302 11.5079 9.76229 11.3613 10.1162C11.2147 10.47 10.9999 10.7916 10.7291 11.0624C10.4582 11.3332 10.1367 11.5481 9.78283 11.6946C9.42896 11.8412 9.04969 11.9167 8.66667 11.9167ZM8.66667 0.833328C6.50073 0.833328 4.42351 1.69374 2.89196 3.22529C1.36041 4.75684 0.5 6.83406 0.5 9C0.5 15.125 8.66667 24.1667 8.66667 24.1667C8.66667 24.1667 16.8333 15.125 16.8333 9C16.8333 6.83406 15.9729 4.75684 14.4414 3.22529C12.9098 1.69374 10.8326 0.833328 8.66667 0.833328Z" fill="url(#paint0_linear_544_308)"/>
<defs>
<linearGradient id="paint0_linear_544_308" x1="8.66667" y1="0.833328" x2="8.66667" y2="24.1667" gradientUnits="userSpaceOnUse">
<stop stop-color="#00ADC7"/>
<stop offset="1" stop-color="#55D3E6"/>
</linearGradient>
</defs>
</svg>
