<svg width="292" height="180" viewBox="0 0 292 180" fill="none" xmlns="http://www.w3.org/2000/svg">
<g clip-path="url(#clip0_563_1053)">
<path d="M29.4736 165.159C30.6858 165.584 31.9874 165.691 33.2529 165.468C34.5183 165.246 35.7051 164.701 36.6987 163.888C39.2293 161.766 40.0229 158.272 40.6683 155.035L42.5778 145.463L38.5801 148.212C35.705 150.189 32.7654 152.23 30.7749 155.094C28.7844 157.958 27.916 161.867 29.5148 164.966" fill="#E6E6E6"/>
<path d="M30.0903 177.415C29.5871 173.753 29.0694 170.044 29.4232 166.343C29.7368 163.057 30.7407 159.847 32.7846 157.214C33.8695 155.82 35.1896 154.625 36.6855 153.684C37.0755 153.438 37.4346 154.055 37.0462 154.3C34.4577 155.934 32.4556 158.347 31.3284 161.19C30.0836 164.352 29.8838 167.8 30.0982 171.159C30.2278 173.19 30.5032 175.209 30.7798 177.224C30.8016 177.316 30.788 177.412 30.7416 177.493C30.6953 177.575 30.6197 177.635 30.5301 177.663C30.4387 177.688 30.3413 177.676 30.259 177.629C30.1768 177.582 30.1162 177.505 30.0906 177.414L30.0903 177.415Z" fill="#F2F2F2"/>
<path d="M33.7129 171.539C34.2327 172.329 34.9473 172.971 35.7879 173.405C36.6285 173.838 37.5666 174.048 38.512 174.014C40.9421 173.899 42.9671 172.206 44.7899 170.597L50.1825 165.842L46.6136 165.671C44.0471 165.548 41.4143 165.433 38.9697 166.225C36.5251 167.016 34.2706 168.918 33.8237 171.445" fill="#E6E6E6"/>
<path d="M28.6681 179.519C31.0905 175.238 33.9001 170.48 38.9208 168.959C40.3167 168.538 41.7803 168.387 43.2329 168.515C43.6908 168.554 43.5765 169.259 43.1195 169.22C40.6845 169.018 38.2542 169.66 36.2377 171.038C34.2973 172.357 32.7863 174.192 31.5077 176.136C30.7244 177.328 30.0227 178.57 29.3211 179.81C29.0969 180.206 28.4413 179.92 28.6681 179.519Z" fill="#F2F2F2"/>
<path d="M272.181 170.256C271.476 170.886 270.621 171.325 269.697 171.529C268.774 171.734 267.813 171.697 266.908 171.423C264.588 170.691 263.063 168.537 261.712 166.517L257.716 160.543L261.21 161.289C263.723 161.826 266.297 162.386 268.458 163.776C270.619 165.165 272.312 167.579 272.098 170.136" fill="#E6E6E6"/>
<path d="M275.015 179.258C273.768 174.501 272.27 169.184 267.805 166.432C266.563 165.668 265.187 165.148 263.75 164.901C263.297 164.822 263.227 165.533 263.679 165.612C266.085 166.038 268.27 167.279 269.867 169.126C271.405 170.897 272.397 173.056 273.135 175.263C273.588 176.615 273.948 177.994 274.309 179.373C274.424 179.813 275.132 179.704 275.015 179.258Z" fill="#F2F2F2"/>
<path d="M225.924 109.592H144.249C143.597 109.591 142.972 109.332 142.51 108.871C142.049 108.411 141.79 107.786 141.789 107.135V79.6145C141.79 78.963 142.049 78.3385 142.51 77.8778C142.972 77.4172 143.597 77.158 144.249 77.1573H225.924C226.576 77.158 227.201 77.4172 227.663 77.8778C228.124 78.3384 228.383 78.963 228.384 79.6145V107.135C228.383 107.786 228.124 108.411 227.663 108.871C227.201 109.332 226.576 109.591 225.924 109.592Z" fill="#F1F1F1"/>
<path d="M176.231 84.5288H154.582V86.986H176.231V84.5288Z" fill="#00ADC7"/>
<path d="M204.768 87.4774C205.583 87.4774 206.244 86.8173 206.244 86.0031C206.244 85.1889 205.583 84.5288 204.768 84.5288C203.953 84.5288 203.292 85.1889 203.292 86.0031C203.292 86.8173 203.953 87.4774 204.768 87.4774Z" fill="#00ADC7"/>
<path d="M209.688 87.4774C210.503 87.4774 211.164 86.8173 211.164 86.0031C211.164 85.1889 210.503 84.5288 209.688 84.5288C208.873 84.5288 208.212 85.1889 208.212 86.0031C208.212 86.8173 208.873 87.4774 209.688 87.4774Z" fill="#00ADC7"/>
<path d="M214.608 87.4774C215.423 87.4774 216.084 86.8173 216.084 86.0031C216.084 85.1889 215.423 84.5288 214.608 84.5288C213.793 84.5288 213.132 85.1889 213.132 86.0031C213.132 86.8173 213.793 87.4774 214.608 87.4774Z" fill="#00ADC7"/>
<path d="M225.924 144.484H144.249C143.597 144.483 142.972 144.224 142.51 143.763C142.049 143.303 141.79 142.678 141.789 142.027V114.506C141.79 113.855 142.049 113.23 142.51 112.77C142.972 112.309 143.597 112.05 144.249 112.049H225.924C226.576 112.05 227.201 112.309 227.663 112.77C228.124 113.23 228.383 113.855 228.384 114.506V142.027C228.383 142.678 228.124 143.303 227.663 143.763C227.201 144.224 226.576 144.483 225.924 144.484Z" fill="#F1F1F1"/>
<path d="M176.231 119.421H154.582V121.878H176.231V119.421Z" fill="#00ADC7"/>
<path d="M204.768 122.369C205.583 122.369 206.244 121.709 206.244 120.895C206.244 120.081 205.583 119.421 204.768 119.421C203.953 119.421 203.292 120.081 203.292 120.895C203.292 121.709 203.953 122.369 204.768 122.369Z" fill="#00ADC7"/>
<path d="M209.688 122.369C210.503 122.369 211.164 121.709 211.164 120.895C211.164 120.081 210.503 119.421 209.688 119.421C208.873 119.421 208.212 120.081 208.212 120.895C208.212 121.709 208.873 122.369 209.688 122.369Z" fill="#00ADC7"/>
<path d="M214.608 122.369C215.423 122.369 216.084 121.709 216.084 120.895C216.084 120.081 215.423 119.421 214.608 119.421C213.793 119.421 213.132 120.081 213.132 120.895C213.132 121.709 213.793 122.369 214.608 122.369Z" fill="#00ADC7"/>
<path d="M225.924 179.376H144.249C143.597 179.375 142.972 179.116 142.51 178.655C142.049 178.194 141.79 177.57 141.789 176.918V149.398C141.79 148.747 142.049 148.122 142.51 147.661C142.972 147.201 143.597 146.942 144.249 146.941H225.924C226.576 146.942 227.201 147.201 227.663 147.661C228.124 148.122 228.383 148.747 228.384 149.398V176.918C228.383 177.57 228.124 178.194 227.663 178.655C227.201 179.116 226.576 179.375 225.924 179.376Z" fill="#F1F1F1"/>
<path d="M176.231 154.312H154.582V156.77H176.231V154.312Z" fill="#00ADC7"/>
<path d="M204.768 157.261C205.583 157.261 206.244 156.601 206.244 155.787C206.244 154.973 205.583 154.312 204.768 154.312C203.953 154.312 203.292 154.973 203.292 155.787C203.292 156.601 203.953 157.261 204.768 157.261Z" fill="#00ADC7"/>
<path d="M209.688 157.261C210.503 157.261 211.164 156.601 211.164 155.787C211.164 154.973 210.503 154.312 209.688 154.312C208.873 154.312 208.212 154.973 208.212 155.787C208.212 156.601 208.873 157.261 209.688 157.261Z" fill="#00ADC7"/>
<path d="M214.608 157.261C215.423 157.261 216.084 156.601 216.084 155.787C216.084 154.973 215.423 154.312 214.608 154.312C213.793 154.312 213.132 154.973 213.132 155.787C213.132 156.601 213.793 157.261 214.608 157.261Z" fill="#00ADC7"/>
<path d="M195.134 50.2839L195.043 50.2173L195.041 50.2156C194.925 50.1292 194.792 50.0665 194.651 50.0312C194.511 49.9959 194.364 49.9887 194.221 50.0098C194.077 50.031 193.939 50.0802 193.815 50.1547C193.69 50.2291 193.582 50.3273 193.495 50.4437L175.111 75.1666H173.089V74.692C173.089 74.5749 173.042 74.4626 172.959 74.3798C172.876 74.297 172.764 74.2505 172.647 74.2505H171.44C171.323 74.2505 171.21 74.297 171.127 74.3798C171.044 74.4626 170.998 74.5749 170.998 74.692V75.1666H170.299V74.692C170.299 74.5749 170.253 74.4626 170.17 74.3798C170.087 74.297 169.975 74.2505 169.857 74.2505H168.651C168.533 74.2505 168.421 74.297 168.338 74.3798C168.255 74.4626 168.209 74.5749 168.209 74.692V75.1666H167.512V74.692C167.512 74.5749 167.466 74.4626 167.383 74.3798C167.3 74.297 167.188 74.2505 167.07 74.2505H165.864C165.746 74.2505 165.634 74.297 165.551 74.3798C165.468 74.4626 165.422 74.5749 165.422 74.692V75.1666H164.723V74.692C164.723 74.5749 164.677 74.4626 164.594 74.3798C164.511 74.297 164.398 74.2505 164.281 74.2505H163.074C162.957 74.2505 162.845 74.297 162.762 74.3798C162.679 74.4626 162.632 74.5749 162.632 74.692V75.1666H161.936V74.692C161.936 74.5749 161.89 74.4626 161.807 74.3798C161.724 74.297 161.612 74.2505 161.494 74.2505H160.288C160.23 74.2505 160.172 74.2619 160.118 74.2841C160.065 74.3063 160.016 74.3388 159.975 74.3798C159.934 74.4208 159.901 74.4695 159.879 74.5231C159.857 74.5766 159.846 74.634 159.846 74.692V75.1666H159.147V74.692C159.147 74.5749 159.101 74.4626 159.018 74.3798C158.935 74.297 158.822 74.2505 158.705 74.2505H157.498C157.381 74.2505 157.269 74.297 157.186 74.3798C157.103 74.4626 157.056 74.5749 157.056 74.692V75.1666H156.358V74.692C156.358 74.5749 156.311 74.4626 156.228 74.3798C156.146 74.297 156.033 74.2505 155.916 74.2505H154.709C154.592 74.2505 154.48 74.297 154.397 74.3798C154.314 74.4626 154.267 74.5749 154.267 74.692V75.1666H153.571V74.692C153.571 74.5749 153.524 74.4626 153.442 74.3798C153.359 74.297 153.246 74.2505 153.129 74.2505H151.922C151.805 74.2505 151.693 74.297 151.61 74.3798C151.527 74.4626 151.48 74.5749 151.48 74.692V75.1666H150.782V74.692C150.782 74.5749 150.735 74.4626 150.652 74.3798C150.569 74.297 150.457 74.2505 150.34 74.2505H149.133C149.016 74.2505 148.903 74.297 148.82 74.3798C148.738 74.4626 148.691 74.5749 148.691 74.692V75.1666H147.995V74.692C147.995 74.5749 147.948 74.4626 147.865 74.3798C147.782 74.297 147.67 74.2505 147.553 74.2505H146.346C146.229 74.2505 146.116 74.297 146.034 74.3798C145.951 74.4626 145.904 74.5749 145.904 74.692V75.1666H145.029C144.884 75.1666 144.74 75.1952 144.606 75.2506C144.472 75.3061 144.35 75.3874 144.247 75.4899C144.145 75.5924 144.063 75.7141 144.008 75.848C143.952 75.9819 143.924 76.1254 143.924 76.2704V77.3234C143.924 77.4683 143.952 77.6118 144.008 77.7458C144.063 77.8797 144.145 78.0014 144.247 78.1039C144.35 78.2063 144.472 78.2876 144.606 78.3431C144.74 78.3986 144.884 78.4271 145.029 78.4271H174.928C175.306 78.4271 175.673 78.2967 175.967 78.0579C176.261 77.8191 176.463 77.4866 176.54 77.1162L176.551 77.1247L195.36 51.8303L195.362 51.8281C195.537 51.5931 195.611 51.2984 195.568 51.0088C195.525 50.7192 195.369 50.4585 195.134 50.2839Z" fill="#3F3D56"/>
<path d="M78.9492 170.001L82.663 171.899L91.7608 158.495L86.2798 155.693L78.9492 170.001Z" fill="#FFB7B7"/>
<path d="M78.6229 168.305L85.9368 172.044L85.9371 172.044C87.1732 172.676 88.1073 173.772 88.534 175.092C88.9607 176.412 88.8451 177.847 88.2125 179.082L88.135 179.233L76.1602 173.112L78.6229 168.305Z" fill="black"/>
<path d="M121.841 175.194H126.013L127.998 159.121H121.841L121.841 175.194Z" fill="#FFB7B7"/>
<path d="M120.777 173.834L128.993 173.833H128.994C130.382 173.833 131.714 174.384 132.696 175.365C133.678 176.346 134.229 177.676 134.229 179.063V179.233L120.778 179.233L120.777 173.834Z" fill="black"/>
<path d="M102.328 44.0947C102.328 44.0947 99.5339 41.9569 99.5339 47.1788L99.0928 64.4351L104.018 80.7368L106.886 75.4497L105.709 63.9945L102.328 44.0947Z" fill="black"/>
<path d="M132.212 91.2937C132.212 91.2937 135.451 107.052 131.348 119.984L129.08 169.706L120.765 169.059L117.85 132.172L115.042 113.836L109.211 130.554L89.9896 165.931L81.1348 159.028C81.1348 159.028 90.9473 132.286 98.1964 126.671L101.832 85.3112L132.212 91.2937Z" fill="black"/>
<path d="M130.675 18.0989C133.186 13.51 131.498 7.75626 126.903 5.2477C122.309 2.73915 116.548 4.42567 114.037 9.01465C111.525 13.6036 113.214 19.3573 117.808 21.8659C122.403 24.3744 128.163 22.6879 130.675 18.0989Z" fill="#FFB7B7"/>
<path d="M121.685 15.5653C122.822 15.713 123.679 14.5516 124.077 13.4779C124.474 12.4043 124.777 11.1544 125.765 10.5744C127.115 9.78212 128.843 10.7351 130.386 10.4737C132.13 10.1784 133.263 8.33299 133.352 6.56906C133.441 4.80512 132.738 3.10859 132.049 1.48225L131.808 3.50342C131.84 2.81839 131.696 2.13658 131.389 1.52319C131.082 0.909796 130.622 0.385344 130.054 0L130.365 2.96574C130.299 2.55657 130.152 2.16446 129.934 1.8119C129.716 1.45934 129.43 1.15328 129.093 0.911279C128.757 0.669279 128.375 0.496106 127.971 0.401699C127.567 0.307292 127.148 0.29351 126.739 0.361143L126.788 2.12824C124.774 1.88909 122.743 1.6496 120.723 1.8318C118.704 2.014 116.67 2.65222 115.14 3.98069C112.85 5.96787 112.014 9.24 112.294 12.2567C112.575 15.2733 113.822 18.1073 115.121 20.8449C115.448 21.5337 115.9 22.3109 116.659 22.3987C117.34 22.4775 117.963 21.9088 118.175 21.2574C118.338 20.589 118.332 19.8905 118.156 19.2251C117.965 18.2083 117.723 17.169 117.903 16.1501C118.084 15.1312 118.817 14.1243 119.846 13.9995C120.874 13.8746 121.926 15.0486 121.432 15.9578L121.685 15.5653Z" fill="black"/>
<path d="M132.798 95.5077L101.151 93.4683L103.533 83.6116L132.458 90.0697L132.798 95.5077Z" fill="#CBCBCB"/>
<path d="M113.282 26.4712L115.267 23.7186C115.267 23.7186 117.485 24.4717 123.427 27.4258L123.847 30.0048L134.161 93.3669L115.414 92.5592L110.308 92.4507L108.638 88.7101L106.578 92.3714L101.592 92.2654L96.5195 89.3282L101.519 74.0545L103.136 60.1027L100.637 46.9585C100.637 46.9585 97.4912 34.8885 109.606 28.3805L113.282 26.4712Z" fill="black"/>
<path d="M155.537 74.4368C155.078 74.5533 154.598 74.5679 154.133 74.4794C153.668 74.391 153.228 74.2017 152.843 73.925C152.459 73.6482 152.14 73.2907 151.91 72.8776C151.679 72.4644 151.541 72.0058 151.507 71.5339L140.385 68.5583L144.859 64.5902L154.735 68.0243C155.532 68.0194 156.304 68.3069 156.904 68.8323C157.503 69.3577 157.889 70.0844 157.987 70.8749C158.086 71.6653 157.891 72.4645 157.44 73.121C156.988 73.7774 156.311 74.2456 155.537 74.4368V74.4368Z" fill="#FFB7B7"/>
<path d="M150.555 72.7569C150.321 72.8841 150.063 72.9607 149.798 72.9818C149.532 73.0028 149.265 72.9678 149.014 72.879L130.718 65.9429C126.254 64.3625 122.517 61.2165 120.202 57.0901L112.572 43.4953C112.036 42.8979 111.624 42.2009 111.358 41.4441C111.092 40.6873 110.978 39.8856 111.023 39.0848C111.068 38.2841 111.27 37.5 111.619 36.7775C111.967 36.055 112.455 35.4082 113.054 34.8741C113.653 34.3401 114.352 33.9292 115.11 33.6652C115.868 33.4011 116.671 33.2889 117.473 33.3351C118.274 33.3813 119.059 33.5849 119.782 33.9343C120.504 34.2836 121.151 34.772 121.685 35.3713L134.891 56.2783L151.511 66.0107C151.837 66.2242 152.089 66.5324 152.233 66.8938C152.378 67.2551 152.408 67.6521 152.32 68.031L151.493 71.5291C151.404 71.9042 151.203 72.2434 150.917 72.5014C150.807 72.6005 150.685 72.6863 150.555 72.7569Z" fill="black"/>
<path d="M291.691 179.931H0.308995C0.227044 179.931 0.14845 179.898 0.0905022 179.84C0.0325545 179.782 0 179.704 0 179.622C0 179.54 0.0325545 179.462 0.0905022 179.404C0.14845 179.346 0.227044 179.314 0.308995 179.314H291.691C291.773 179.314 291.852 179.346 291.91 179.404C291.967 179.462 292 179.54 292 179.622C292 179.704 291.967 179.782 291.91 179.84C291.852 179.898 291.773 179.931 291.691 179.931Z" fill="#CBCBCB"/>
</g>
<defs>
<clipPath id="clip0_563_1053">
<rect width="292" height="180" fill="white"/>
</clipPath>
</defs>
</svg>
