<svg width="25" height="25" viewBox="0 0 25 25" fill="none" xmlns="http://www.w3.org/2000/svg">
<path d="M20.2 13.4L14.5 19.1H12.2V16.8L17.9 11.1L20.2 13.4ZM23.6 12.6C23.6 12.9 23.3 13.2 23 13.5L20.5 16L19.6 15.1L22.2 12.5L21.6 11.9L20.9 12.6L18.6 10.3L20.8 8.2C21 8 21.4 8 21.7 8.2L23.1 9.6C23.3 9.8 23.3 10.2 23.1 10.5C22.9 10.7 22.7 10.9 22.7 11.1C22.7 11.3 22.9 11.5 23.1 11.7C23.4 12 23.7 12.3 23.6 12.6ZM3.5 20.5V4.5H10.5V9.5H15.5V11L17.5 9V8.5L11.5 2.5H3.5C2.4 2.5 1.5 3.4 1.5 4.5V20.5C1.5 21.6 2.4 22.5 3.5 22.5H15.5C16.6 22.5 17.5 21.6 17.5 20.5H3.5ZM11.5 17.6C11.3 17.6 11.1 17.7 11 17.7L10.5 15.5H9L6.9 17.2L7.5 14.5H6L5 19.5H6.5L9.4 16.9L10 19.2H11L11.5 19.1V17.6Z" fill="url(#paint0_linear_544_318)"/>
<defs>
<linearGradient id="paint0_linear_544_318" x1="12.5598" y1="2.5" x2="12.5598" y2="22.5" gradientUnits="userSpaceOnUse">
<stop stop-color="#00ADC7"/>
<stop offset="1" stop-color="#55D3E6"/>
</linearGradient>
</defs>
</svg>
